<?xml version="1.0" encoding="iso-8859-1"?>
<!-- Generator: Adobe Illustrator 19.0.0, SVG Export Plug-In . SVG Version: 6.00 Build 0)  -->
<svg version="1.1" id="Layer_1" xmlns="http://www.w3.org/2000/svg" xmlns:xlink="http://www.w3.org/1999/xlink" x="0px" y="0px"
	 viewBox="0 0 512 512" style="enable-background:new 0 0 512 512;" xml:space="preserve">
<polygon style="fill:#FFE777;" points="410.725,455.736 410.725,112.527 332.999,56.264 376.967,455.736 "/>
<polygon style="fill:#FFF1B1;" points="376.967,455.736 376.967,112.527 298.198,0 45.011,0 45.011,455.736 "/>
<polygon style="fill:#FEDC3D;" points="410.725,112.527 298.198,0 298.198,112.527 "/>
<g>
	<path style="fill:#BFA52E;" d="M340.396,191.297H115.341c-4.661,0-8.44-3.779-8.44-8.44s3.779-8.44,8.44-8.44h225.055
		c4.661,0,8.44,3.779,8.44,8.44S345.057,191.297,340.396,191.297z"/>
	<path style="fill:#BFA52E;" d="M340.396,236.308H115.341c-4.661,0-8.44-3.779-8.44-8.44c0-4.661,3.779-8.44,8.44-8.44h225.055
		c4.661,0,8.44,3.779,8.44,8.44C348.835,232.529,345.057,236.308,340.396,236.308z"/>
	<path style="fill:#BFA52E;" d="M227.868,281.319H115.341c-4.661,0-8.44-3.779-8.44-8.44c0-4.661,3.779-8.44,8.44-8.44h112.527
		c4.661,0,8.44,3.779,8.44,8.44C236.308,277.54,232.529,281.319,227.868,281.319z"/>
</g>
<path style="fill:#02ACAB;" d="M354.462,286.945V512c62.149,0,112.527-50.379,112.527-112.527S416.611,286.945,354.462,286.945z"/>
<path style="fill:#42C8C6;" d="M354.462,286.945c43.503,0,78.769,50.379,78.769,112.527S397.965,512,354.462,512
	c-62.149,0-112.527-50.379-112.527-112.527S292.313,286.945,354.462,286.945z"/>
<path style="fill:#FFFFFF;" d="M410.725,382.593h-39.385v-39.385c0-9.322-7.557-16.879-16.879-16.879s-16.879,7.557-16.879,16.879
	v39.385h-39.385c-9.322,0-16.879,7.557-16.879,16.879c0,9.322,7.557,16.879,16.879,16.879h39.385v39.385
	c0,9.322,7.557,16.879,16.879,16.879s16.879-7.557,16.879-16.879v-39.385h39.385c9.322,0,16.879-7.557,16.879-16.879
	C427.604,390.151,420.047,382.593,410.725,382.593z"/>
<g>
</g>
<g>
</g>
<g>
</g>
<g>
</g>
<g>
</g>
<g>
</g>
<g>
</g>
<g>
</g>
<g>
</g>
<g>
</g>
<g>
</g>
<g>
</g>
<g>
</g>
<g>
</g>
<g>
</g>
</svg>
