solid exported
	facet normal -1 0 0
		outer loop
			vertex 0.36905717849731445 4 -3.7646050453186035
			vertex 0.36905717849731445 4 6.2353949546813965
			vertex 0.36905717849731445 14 -3.7646050453186035
		endloop
	endfacet
	facet normal -1 0 0
		outer loop
			vertex 0.36905717849731445 14 -3.7646050453186035
			vertex 0.36905717849731445 4 6.2353949546813965
			vertex 0.36905717849731445 14 6.2353949546813965
		endloop
	endfacet
	facet normal 0 0 -1
		outer loop
			vertex 10.369057178497314 4 -3.7646050453186035
			vertex 0.36905717849731445 4 -3.7646050453186035
			vertex 10.369057178497314 14 -3.7646050453186035
		endloop
	endfacet
	facet normal 0 0 -1
		outer loop
			vertex 10.369057178497314 14 -3.7646050453186035
			vertex 0.36905717849731445 4 -3.7646050453186035
			vertex 0.36905717849731445 14 -3.7646050453186035
		endloop
	endfacet
	facet normal 1 0 0
		outer loop
			vertex 10.369057178497314 4 6.2353949546813965
			vertex 10.369057178497314 4 -3.7646050453186035
			vertex 10.369057178497314 14 6.2353949546813965
		endloop
	endfacet
	facet normal 1 0 0
		outer loop
			vertex 10.369057178497314 14 6.2353949546813965
			vertex 10.369057178497314 4 -3.7646050453186035
			vertex 10.369057178497314 14 -3.7646050453186035
		endloop
	endfacet
	facet normal 0 0 1
		outer loop
			vertex 0.36905717849731445 4 6.2353949546813965
			vertex 10.369057178497314 4 6.2353949546813965
			vertex 0.36905717849731445 14 6.2353949546813965
		endloop
	endfacet
	facet normal 0 0 1
		outer loop
			vertex 0.36905717849731445 14 6.2353949546813965
			vertex 10.369057178497314 4 6.2353949546813965
			vertex 10.369057178497314 14 6.2353949546813965
		endloop
	endfacet
	facet normal 0 1 0
		outer loop
			vertex 10.369057178497314 14 6.2353949546813965
			vertex 10.369057178497314 14 -3.7646050453186035
			vertex 0.36905717849731445 14 6.2353949546813965
		endloop
	endfacet
	facet normal 0 1 0
		outer loop
			vertex 0.36905717849731445 14 6.2353949546813965
			vertex 10.369057178497314 14 -3.7646050453186035
			vertex 0.36905717849731445 14 -3.7646050453186035
		endloop
	endfacet
	facet normal 0 -1 0
		outer loop
			vertex 0.36905717849731445 4 6.2353949546813965
			vertex 0.36905717849731445 4 -3.7646050453186035
			vertex 10.369057178497314 4 6.2353949546813965
		endloop
	endfacet
	facet normal 0 -1 0
		outer loop
			vertex 10.369057178497314 4 6.2353949546813965
			vertex 0.36905717849731445 4 -3.7646050453186035
			vertex 10.369057178497314 4 -3.7646050453186035
		endloop
	endfacet
endsolid exported
